<svg aria-hidden="true" style="position: absolute; width: 0; height: 0; overflow: hidden;" version="1.1" xmlns="http://www.w3.org/2000/svg" xmlns:xlink="http://www.w3.org/1999/xlink">
<defs>
<symbol id="icon-currency" viewBox="0 0 32 32">
<path fill="#6e78e8" style="fill: var(--color1, #6e78e8)" d="M6.548 2.183c-2.411 0-4.365 1.954-4.365 4.365v0 18.916c0 2.411 1.954 4.365 4.365 4.365v0h18.916c2.411 0 4.365-1.954 4.365-4.365v0-18.916c0-2.411-1.954-4.365-4.365-4.365v0h-18.916zM13.643 13.531c0 0.86 0.661 1.411 2.716 1.946s4.255 1.412 4.255 3.983c0 1.855-1.403 2.879-3.168 3.213v1.946h-2.716v-1.964c-1.738-0.371-3.223-1.484-3.331-3.467h1.991c0.1 1.068 0.833 1.9 2.698 1.9 2.001 0 2.445-0.995 2.445-1.62 0-0.842-0.453-1.638-2.716-2.181-2.526-0.607-4.255-1.648-4.255-3.739 0-1.746 1.413-2.887 3.168-3.267v-1.956h2.716v1.983c1.892 0.462 2.842 1.892 2.906 3.449h-2.001c-0.054-1.131-0.651-1.901-2.263-1.901-1.53 0-2.444 0.688-2.444 1.675z"></path>
</symbol>
<symbol id="icon-dropdownicon" viewBox="0 0 32 32">
<path stroke-linejoin="miter" stroke-linecap="butt" stroke-miterlimit="4" stroke-width="1.6" d="M1.6 8.803l14.4 14.4 14.4-14.4"></path>
</symbol>
<!-- <symbol id="icon-edit-02" viewBox="0 0 32 32">
<path stroke-linejoin="round" stroke-linecap="round" stroke-miterlimit="4" stroke-width="2.7429" d="M24 13.334l-5.333-5.333M3.333 28.667l4.512-0.502c0.551-0.061 0.827-0.092 1.085-0.175 0.229-0.074 0.446-0.178 0.647-0.311 0.226-0.149 0.422-0.345 0.814-0.737l17.608-17.608c1.473-1.473 1.473-3.861 0-5.333s-3.861-1.473-5.333 0l-17.608 17.608c-0.392 0.392-0.588 0.588-0.737 0.814-0.132 0.201-0.237 0.418-0.311 0.647-0.083 0.258-0.114 0.533-0.175 1.085l-0.501 4.513z"></path>
</symbol> -->
<symbol id="icon-email" viewBox="0 0 32 32">
<path fill="#e0e0e0" style="fill: var(--color2, #e0e0e0)" d="M26.24 5.77h-20.48c-1.408 0-2.547 1.152-2.547 2.56l-0.013 15.36c0 1.408 1.152 2.56 2.56 2.56h20.48c1.408 0 2.56-1.152 2.56-2.56v-15.36c0-1.408-1.152-2.56-2.56-2.56zM26.24 10.89l-10.24 6.4-10.24-6.4v-2.56l10.24 6.4 10.24-6.4v2.56z"></path>
</symbol>
<symbol id="icon-home" viewBox="0 0 32 32">
<path fill="#fff" style="fill: var(--color3, #fff)" d="M8.829 3.863h14.348c1.829 0 3.311 1.482 3.311 3.311v14.348c0 1.829-1.482 3.311-3.311 3.311h-14.348c-1.829 0-3.311-1.482-3.311-3.311v-14.348c0-1.829 1.482-3.311 3.311-3.311z"></path>
<path fill="#4a56e2" style="fill: var(--color4, #4a56e2)" d="M8.829 3.863c-1.829 0-3.311 1.482-3.311 3.311v0 14.348c0 1.829 1.482 3.311 3.311 3.311v0h14.348c1.829 0 3.311-1.482 3.311-3.311v0-14.348c0-1.829-1.482-3.311-3.311-3.311v0h-14.348zM14.311 15.65v4.523h-3.771v-6.031h-2.263l7.542-6.784 7.541 6.784h-2.263v6.031h-3.771v-4.523h-3.017z"></path>
</symbol>
<symbol id="icon-name" viewBox="0 0 32 32">
<path fill="#e0e0e0" style="fill: var(--color2, #e0e0e0)" d="M4.48 7.050v17.92c0 1.414 1.146 2.56 2.56 2.56v0h17.92c1.408 0 2.56-1.152 2.56-2.56v-17.92c0-1.408-1.152-2.56-2.56-2.56h-17.92c-1.414 0-2.56 1.146-2.56 2.56v0zM19.84 12.17c0 2.125-1.715 3.84-3.84 3.84s-3.84-1.715-3.84-3.84 1.715-3.84 3.84-3.84 3.84 1.715 3.84 3.84zM8.32 22.41c0-2.56 5.12-3.968 7.68-3.968s7.68 1.408 7.68 3.968v1.28h-15.36v-1.28z"></path>
</symbol>
<symbol id="icon-password" viewBox="0 0 32 32">
<path fill="#e0e0e0" style="fill: var(--color2, #e0e0e0)" d="M23.68 10.89h-1.28v-2.56c0-3.533-2.867-6.4-6.4-6.4s-6.4 2.867-6.4 6.4v2.56h-1.28c-1.408 0-2.56 1.152-2.56 2.56v12.8c0 1.408 1.152 2.56 2.56 2.56h15.36c1.408 0 2.56-1.152 2.56-2.56v-12.8c0-1.408-1.152-2.56-2.56-2.56zM16 22.41c-1.408 0-2.56-1.152-2.56-2.56s1.152-2.56 2.56-2.56 2.56 1.152 2.56 2.56-1.152 2.56-2.56 2.56zM19.968 10.89h-7.936v-2.56c0-2.189 1.779-3.968 3.968-3.968s3.968 1.779 3.968 3.968v2.56z"></path>
</symbol>
<symbol id="iconpencel" viewBox="0 0 32 32">
<path fill="#000000CC" stroke-linejoin="round" stroke-linecap="round" stroke-miterlimit="4" stroke-width="2.7429" d="M24.027 13.347l-5.339-5.339M3.336 28.699l4.519-0.503c0.549-0.059 0.826-0.092 1.085-0.174 0.229-0.076 0.446-0.178 0.648-0.311 0.227-0.151 0.423-0.346 0.815-0.739l17.629-17.629c0.652-0.678 1.054-1.6 1.054-2.617 0-2.085-1.69-3.776-3.776-3.776-1.016 0-1.939 0.402-2.618 1.055l0.001-0.001-17.629 17.629c-0.394 0.391-0.588 0.588-0.739 0.815-0.125 0.186-0.23 0.401-0.306 0.629l-0.005 0.019c-0.082 0.259-0.114 0.533-0.174 1.087l-0.503 4.517z"></path>
</symbol>
<symbol id="icon-statistics" viewBox="0 0 32 32">
<path fill="#6e78e8" style="fill: var(--color1, #6e78e8)" d="M6.548 2.183h18.916c2.411 0 4.365 1.954 4.365 4.365v18.916c0 2.411-1.954 4.365-4.365 4.365h-18.916c-2.411 0-4.365-1.954-4.365-4.365v-18.916c0-2.411 1.954-4.365 4.365-4.365zM23.645 14.227c0.933 0 1.697-0.8 1.697-1.778s-0.764-1.778-1.697-1.778c-0.933 0-1.697 0.8-1.697 1.778 0 0.16 0.017 0.311 0.059 0.453l-3.013 3.166c-0.125-0.039-0.269-0.062-0.417-0.062-0.009 0-0.017 0-0.025 0l0.001-0c-0.153 0-0.306 0.017-0.442 0.062l-2.164-2.267c0.043-0.143 0.060-0.303 0.060-0.463 0-0.978-0.764-1.778-1.697-1.778s-1.698 0.8-1.698 1.778c0 0.16 0.017 0.32 0.060 0.463l-3.87 4.046c-0.123-0.040-0.265-0.063-0.412-0.063-0.007 0-0.015 0-0.022 0h0.001c-0.933 0-1.697 0.8-1.697 1.779s0.764 1.778 1.697 1.778 1.697-0.8 1.697-1.778c0-0.16-0.017-0.311-0.059-0.453l3.862-4.055c0.136 0.044 0.289 0.063 0.442 0.063s0.306-0.018 0.441-0.063l2.164 2.268c-0.038 0.131-0.059 0.281-0.059 0.437 0 0.009 0 0.018 0 0.027l-0-0.001c0 0.979 0.764 1.779 1.697 1.779s1.697-0.8 1.697-1.779c0-0.16-0.017-0.32-0.059-0.462l3.021-3.157c0.136 0.044 0.28 0.062 0.433 0.062z"></path>
</symbol>
<symbol id="icon-wallet" viewBox="0 0 32 32">
<path fill="#24cca7" style="fill: var(--color5, #24cca7)" d="M3.755 7.619l16.211-4.538-0.858-1.779c-0.562-1.156-1.932-1.634-3.059-1.058l-14.513 7.375h2.219zM24.814 3.048c-0.209 0-0.411 0.032-0.601 0.091l0.014-0.004-15.012 4.483h18.431l-0.693-2.778c-0.266-1.083-1.163-1.792-2.14-1.792z"></path>
<path fill="#4a56e2" style="fill: var(--color4, #4a56e2)" d="M28.36 8.573h-26.56c-0.001 0-0.002 0-0.003 0-0.822 0-1.515 0.551-1.73 1.303l-0.003 0.013c-0.039 0.14-0.063 0.3-0.064 0.466v19.863c0.005 0.985 0.804 1.782 1.79 1.782 0.002 0 0.004 0 0.007 0h26.56c0.991 0 1.796-0.798 1.796-1.782v-4.974h-10.662c-1.686 0-3.054-1.358-3.054-3.030v-3.966c0-0.82 0.33-1.565 0.866-2.11 0.551-0.565 1.321-0.916 2.172-0.916 0.005 0 0.009 0 0.014 0h10.665v-4.867c-0.001-0.985-0.8-1.782-1.785-1.782-0.003 0-0.006 0-0.008 0h0z"></path>
<path fill="#4a56e2" style="fill: var(--color4, #4a56e2)" d="M31.414 16.926c-0.318-0.29-0.743-0.467-1.209-0.467-0.001 0-0.002 0-0.002 0h-10.712c-0.992 0-1.797 0.798-1.797 1.782v3.969c0.005 0.985 0.804 1.782 1.79 1.782 0.002 0 0.005 0 0.007 0h10.712c0.205 0 0.399-0.036 0.582-0.096 0.237-0.079 0.449-0.208 0.629-0.371 0.36-0.325 0.586-0.795 0.586-1.316v-3.968c0-0.52-0.226-0.991-0.586-1.315zM23.242 20.581c-0.003 0.493-0.403 0.891-0.896 0.891-0.001 0-0.002 0-0.003 0h-0.596c-0.496 0-0.898-0.4-0.898-0.891v-0.592c0-0.286 0.133-0.538 0.345-0.698 0.151-0.119 0.344-0.191 0.553-0.193h0.596c0.496 0 0.898 0.399 0.898 0.891v0.592z"></path>
</symbol>
<symbol id="iconplus" viewBox="0 0 32 32">
<path fill="none" stroke="#fff" style="stroke: var(--color1, #fff)" stroke-linejoin="miter" stroke-linecap="butt" stroke-miterlimit="4" stroke-width="3.2" d="M16 0v32M0 16h32"></path>
</symbol>
<symbol id="iconclose" viewBox="0 0 30 32">
<path d="M16.219 14.826l4.928-4.923c0.156-0.177 0.252-0.412 0.252-0.668 0-0.559-0.453-1.013-1.013-1.013-0.257 0-0.492 0.096-0.67 0.253l0.001-0.001-4.927 4.874-4.959-4.955c-0.175-0.146-0.402-0.235-0.649-0.235-0.56 0-1.014 0.454-1.014 1.014 0 0.247 0.089 0.474 0.236 0.65l-0.001-0.002 4.948 5.006-4.847 4.782c-0.211 0.187-0.344 0.458-0.344 0.76 0 0.559 0.454 1.013 1.013 1.013 0.303 0 0.574-0.133 0.76-0.343l0.001-0.001 4.836-4.832 4.806 4.801c0.175 0.146 0.402 0.235 0.649 0.235 0.56 0 1.014-0.454 1.014-1.014 0-0.247-0.089-0.474-0.236-0.65l0.001 0.002-4.785-4.751z"></path>
</symbol>
<symbol id="icon-statistics" viewBox="0 0 32 32">
<path fill="#6e78e8" style="fill: var(--color1, #6e78e8)" d="M6.667 4h18.667c1.473 0 2.667 1.194 2.667 2.667v18.667c0 1.473-1.194 2.667-2.667 2.667h-18.667c-1.473 0-2.667-1.194-2.667-2.667v-18.667c0-1.473 1.194-2.667 2.667-2.667zM23.636 14.222c0.933 0 1.697-0.8 1.697-1.778s-0.764-1.778-1.697-1.778-1.697 0.8-1.697 1.778c0 0.16 0.017 0.311 0.059 0.453l-3.012 3.165c-0.136-0.045-0.289-0.062-0.441-0.062s-0.305 0.018-0.441 0.062l-2.164-2.267c0.042-0.142 0.059-0.302 0.059-0.462 0-0.978-0.764-1.778-1.697-1.778s-1.697 0.8-1.697 1.778c0 0.16 0.017 0.32 0.059 0.462l-3.869 4.044c-0.136-0.044-0.28-0.062-0.433-0.062-0.933 0-1.697 0.8-1.697 1.778s0.764 1.778 1.697 1.778 1.697-0.8 1.697-1.778c0-0.16-0.017-0.311-0.059-0.453l3.861-4.053c0.136 0.044 0.288 0.062 0.441 0.062s0.305-0.018 0.441-0.062l2.164 2.267c-0.042 0.142-0.059 0.302-0.059 0.462 0 0.978 0.764 1.778 1.697 1.778s1.697-0.8 1.697-1.778c0-0.16-0.017-0.32-0.059-0.462l3.021-3.156c0.136 0.044 0.28 0.062 0.433 0.062z"></path>
</symbol>
<symbol id="iconuntitled" viewBox="0 0 320 32">
<path fill="none" stroke="#fff" style="stroke: var(--color1, #fff)" stroke-linejoin="miter" stroke-linecap="butt" stroke-miterlimit="4" stroke-width="32" d="M0 16.063h320"></path>
</symbol>
<symbol id="icon-edit-02" viewBox="0 0 32 32">
<path stroke-linejoin="round" stroke-linecap="round" stroke-miterlimit="4" stroke-width="2.7429" d="M24 13.334l-5.333-5.333M3.333 28.667l4.513-0.502c0.551-0.061 0.827-0.092 1.085-0.175 0.229-0.074 0.446-0.178 0.647-0.311 0.226-0.149 0.422-0.345 0.814-0.737l17.608-17.608c1.473-1.473 1.473-3.861 0-5.333s-3.861-1.473-5.333 0l-17.608 17.608c-0.392 0.392-0.588 0.588-0.737 0.814-0.132 0.201-0.237 0.418-0.311 0.647-0.083 0.258-0.114 0.533-0.175 1.085l-0.501 4.513z"></path>
</symbol>
<symbol id="penCreate" viewBox="0 0 32 32">
<path d="M27.972 25.856v2.101l-16.826-0.014 2.355-2.087h14.471zM24.195 4c0.825 0 1.253 0.064 2.376 1.005 1.147 0.96 1.354 1.71 1.401 2.543 0.051 0.898-0.252 1.988-1.094 2.841l-15.98 15.98c-0.26 0.238-0.315 0.225-0.489 0.276l-5.113 1.279c-0.736 0.149-1.427-0.524-1.275-1.275l1.279-5.113c0.050-0.167 0.067-0.259 0.277-0.488 5.348-5.348 10.598-10.797 16.045-16.044 0.71-0.668 1.748-1.006 2.573-1.006zM8.007 21.591l-0.739 0.738-0.783 3.131 3.131-0.783c0.246-0.246 0.492-0.491 0.739-0.737l-2.349-2.349zM23.095 11.305l-2.401-2.401-11.246 11.247 2.356 2.357c3.774-3.724 7.598-7.401 11.291-11.203zM24.508 9.836c0.309-0.324 0.617-0.649 0.924-0.976 0.837-0.913 0.221-2.727-1.154-2.789-0.028-0.001-0.056-0.001-0.084-0.001-0.43 0.008-0.849 0.186-1.156 0.489l-0.904 0.904 2.373 2.373z"></path>
</symbol>
<symbol id="icon-pencil-writing-creative" viewBox="0 0 32 32">
<path fill="#6ec4a7" style="fill: var(--color1, #6ec4a7)" d="M8.446 17.377l6.376 6.374 13.404-13.406-6.373-6.374-13.407 13.406zM23.365 8.833c0.443 0.444 0.443 1.163 0 1.606l-7.763 7.761c-0.221 0.223-0.512 0.333-0.801 0.333-0.292 0-0.582-0.11-0.803-0.333-0.443-0.444-0.443-1.162 0-1.605l7.762-7.761c0.443-0.443 1.162-0.443 1.605 0z"></path>
<path fill="#65b794" style="fill: var(--color2, #65b794)" d="M5.528 26.577l7.083-1.823-5.188-5.188z"></path>
<path fill="#65b794" style="fill: var(--color2, #65b794)" d="M30.812 4.407l-3.022-3.023c-0.896-0.895-2.459-0.894-3.351 0l-0.982 0.982 6.375 6.373 0.98-0.98c0.922-0.925 0.922-2.429 0-3.352z"></path>
<path fill="#647f94" style="fill: var(--color3, #647f94)" d="M27.986 31.492h-26.769c-0.645 0-1.167-0.523-1.167-1.167v-28.386c0-0.645 0.522-1.167 1.167-1.167h17.974c0.645 0 1.166 0.522 1.166 1.167s-0.521 1.167-1.166 1.167h-16.807v26.052h25.602c0.911 0 1.653-0.741 1.653-1.653v-14.638c0-0.645 0.522-1.167 1.166-1.167s1.167 0.522 1.167 1.167v14.638c0 2.198-1.788 3.987-3.986 3.987z"></path>
</symbol>
<symbol id="baseline-date" viewBox="0 0 32 32">
<path fill="#4a56e2" style="fill: var(--color1, #4a56e2)" d="M12 14.667h-2.667v2.667h2.667v-2.667zM17.333 14.667h-2.667v2.667h2.667v-2.667zM22.667 14.667h-2.667v2.667h2.667v-2.667zM25.333 5.333h-1.333v-2.667h-2.667v2.667h-10.667v-2.667h-2.667v2.667h-1.333c-1.48 0-2.653 1.2-2.653 2.667l-0.013 18.667c0 1.467 1.187 2.667 2.667 2.667h18.667c1.467 0 2.667-1.2 2.667-2.667v-18.667c0-1.467-1.2-2.667-2.667-2.667zM25.333 26.667h-18.667v-14.667h18.667v14.667z"></path>
</symbol>
</defs>
</svg>